<?xml version="1.0" encoding="utf-8"?>
<!-- Generator: Adobe Illustrator 15.0.0, SVG Export Plug-In . SVG Version: 6.00 Build 0)  -->
<!DOCTYPE svg PUBLIC "-//W3C//DTD SVG 1.1//EN" "http://www.w3.org/Graphics/SVG/1.1/DTD/svg11.dtd">
<svg version="1.1" id="Layer_1" xmlns="http://www.w3.org/2000/svg" xmlns:xlink="http://www.w3.org/1999/xlink" x="0px" y="0px"
	 width="120px" height="120px" viewBox="0 0 120 120" enable-background="new 0 0 120 120" xml:space="preserve">
<path d="M82.447,64.852v16.6h-9.623V65.965c0-3.891-1.391-6.545-4.875-6.545c-2.658,0-4.24,1.788-4.936,3.52
	c-0.254,0.617-0.32,1.479-0.32,2.346v16.166h-9.625c0,0,0.129-26.232,0-28.947h9.625v4.102c-0.02,0.032-0.045,0.063-0.062,0.095
	h0.062v-0.095c1.279-1.968,3.561-4.782,8.674-4.782C77.701,51.824,82.447,55.96,82.447,64.852L82.447,64.852z"/>
<path d="M42.999,38.549c-3.293,0-5.446,2.161-5.446,5c0,2.78,2.092,5.003,5.319,5.003h0.064c3.356,0,5.443-2.223,5.443-5.003
	C48.316,40.71,46.292,38.549,42.999,38.549L42.999,38.549z"/>
<rect x="38.125" y="52.504" width="9.622" height="28.947"/>
</svg>
