<?xml version="1.0" encoding="utf-8"?>
<!-- Generator: Adobe Illustrator 15.0.0, SVG Export Plug-In . SVG Version: 6.00 Build 0)  -->
<!DOCTYPE svg PUBLIC "-//W3C//DTD SVG 1.1//EN" "http://www.w3.org/Graphics/SVG/1.1/DTD/svg11.dtd">
<svg version="1.1" id="Layer_1" xmlns="http://www.w3.org/2000/svg" xmlns:xlink="http://www.w3.org/1999/xlink" x="0px" y="0px"
	 width="120px" height="120px" viewBox="0 0 120 120" enable-background="new 0 0 120 120" xml:space="preserve">
<path d="M55.833,69.442c-1.48,7.756-3.284,15.191-8.637,19.075c-1.65-11.724,2.426-20.525,4.321-29.871
	c-3.229-5.433,0.388-16.371,7.195-13.676c8.378,3.314-7.256,20.203,3.24,22.314c10.958,2.201,15.431-19.015,8.637-25.912
	c-9.816-9.963-28.578-0.229-26.271,14.035c0.562,3.485,4.163,4.545,1.438,9.357c-6.284-1.395-8.157-6.351-7.918-12.957
	c0.391-10.812,9.718-18.385,19.075-19.433c11.833-1.326,22.939,4.343,24.472,15.475c1.728,12.563-5.339,26.172-17.994,25.192
	C59.961,72.775,58.523,71.076,55.833,69.442L55.833,69.442z"/>
<path d="M55.833,69.442"/>
</svg>
