<?xml version="1.0" encoding="utf-8"?>
<!-- Generator: Adobe Illustrator 15.0.0, SVG Export Plug-In . SVG Version: 6.00 Build 0)  -->
<!DOCTYPE svg PUBLIC "-//W3C//DTD SVG 1.1//EN" "http://www.w3.org/Graphics/SVG/1.1/DTD/svg11.dtd">
<svg version="1.1" id="Layer_1" xmlns="http://www.w3.org/2000/svg" xmlns:xlink="http://www.w3.org/1999/xlink" x="0px" y="0px"
	 width="100px" height="100px" viewBox="-44 -42 100 100" enable-background="new -44 -42 100 100" xml:space="preserve">
<title>three-bars</title>
<desc>Created with Sketch.</desc>
<g id="Octicons">
	<g id="three-bars">
		<path id="Shape" d="M18.521,10.312H-6.498c-1.364,0-1.364-0.948-1.364-2.312c0-1.364,0-2.312,1.364-2.312h24.995
			c1.364,0,1.364,0.948,1.364,2.312c0,1.363,0,2.312-1.364,2.312H18.521z M18.521,1.063H-6.498c-1.364,0-1.364-0.948-1.364-2.312
			s0-2.312,1.364-2.312h24.995c1.364,0,1.364,0.948,1.364,2.312s0,2.312-1.364,2.312H18.521z M-6.498,14.937h24.995
			c1.364,0,1.364,0.947,1.364,2.312s0,2.313-1.364,2.313H-6.498c-1.364,0-1.364-0.949-1.364-2.313S-7.861,14.937-6.498,14.937
			L-6.498,14.937z"/>
	</g>
</g>
</svg>
