<?xml version="1.0" encoding="utf-8"?>
<!-- Generator: Adobe Illustrator 15.0.0, SVG Export Plug-In . SVG Version: 6.00 Build 0)  -->
<!DOCTYPE svg PUBLIC "-//W3C//DTD SVG 1.1//EN" "http://www.w3.org/Graphics/SVG/1.1/DTD/svg11.dtd">
<svg version="1.1" id="Layer_1" xmlns="http://www.w3.org/2000/svg" xmlns:xlink="http://www.w3.org/1999/xlink" x="0px" y="0px"
	 width="120px" height="120px" viewBox="0 0 120 120" enable-background="new 0 0 120 120" xml:space="preserve">
<path d="M82.4,46.108c-1.641,0.729-3.418,1.232-5.277,1.453c1.9-1.139,3.35-2.941,4.047-5.09c-1.777,1.053-3.746,1.82-5.852,2.229
	c-1.668-1.777-4.061-2.896-6.699-2.896c-5.071,0-9.188,4.115-9.188,9.188c0,0.725,0.086,1.42,0.236,2.093
	c-7.645-0.386-14.41-4.036-18.949-9.601c-0.794,1.354-1.245,2.939-1.245,4.623c0,3.186,1.627,6.003,4.088,7.641
	c-1.506-0.038-2.912-0.462-4.155-1.148v0.112c0,4.455,3.171,8.174,7.368,9.021c-0.768,0.205-1.586,0.314-2.419,0.314
	c-0.588,0-1.162-0.055-1.736-0.164c1.176,3.65,4.563,6.303,8.586,6.385c-3.147,2.461-7.112,3.924-11.417,3.924
	c-0.738,0-1.463-0.041-2.188-0.123c4.074,2.61,8.9,4.128,14.094,4.128c16.898,0,26.141-13.999,26.141-26.139l-0.027-1.189
	C79.611,49.569,81.17,47.956,82.4,46.108L82.4,46.108z"/>
</svg>
