<?xml version="1.0" encoding="utf-8"?>
<!-- Generator: Adobe Illustrator 15.0.0, SVG Export Plug-In . SVG Version: 6.00 Build 0)  -->
<!DOCTYPE svg PUBLIC "-//W3C//DTD SVG 1.1//EN" "http://www.w3.org/Graphics/SVG/1.1/DTD/svg11.dtd">
<svg version="1.1" id="Layer_1" xmlns="http://www.w3.org/2000/svg" xmlns:xlink="http://www.w3.org/1999/xlink" x="0px" y="0px"
	 width="473px" height="234px" viewBox="0 108 473 234" enable-background="new 0 108 473 234" xml:space="preserve">
<g>
	<text transform="matrix(1 0 0 1 49.3882 238.1963)" fill="#FFFFFF" font-family="'Georgia'" font-size="76">p</text>
	<text transform="matrix(1 0 0 1 92.4043 238.1963)" fill="#FFFFFF" font-family="'Georgia'" font-size="76">a</text>
	<text transform="matrix(1 0 0 1 129.7202 238.1963)" fill="#FFFFFF" font-family="'Georgia'" font-size="76">m</text>
	<text transform="matrix(1 0 0 1 195.916 238.1963)" fill="#FFFFFF" font-family="'Georgia'" font-size="76">e</text>
	<text transform="matrix(1 0 0 1 231.9399 238.1963)" fill="#FFFFFF" font-family="'Georgia'" font-size="76">l</text>
	<text transform="matrix(1 0 0 1 252.6875 238.1963)" fill="#FFFFFF" font-family="'Georgia'" font-size="76">a</text>
	<text transform="matrix(1 0 0 1 290.376 238.1963)" fill="#FFFFFF" font-family="'Georgia'" font-size="76"> </text>
	<text transform="matrix(1 0 0 1 308.0254 238.1963)" fill="#FFFFFF" font-family="'Georgia'" font-size="76">k</text>
	<text transform="matrix(1 0 0 1 347.9922 238.1963)" fill="#FFFFFF" font-family="'Georgia'" font-size="76">a</text>
	<text transform="matrix(1 0 0 1 385.0801 238.1963)" fill="#FFFFFF" font-family="'Georgia'" font-size="76">y</text>
	<text transform="matrix(1 0 0 1 111.4976 281.1221)" fill="#FFFFFF" font-family="'Georgia'" font-size="26.4189">h</text>
	<text transform="matrix(1 0 0 1 126.583 281.1221)" fill="#FFFFFF" font-family="'Georgia'" font-size="26.4189">a</text>
	<text transform="matrix(1 0 0 1 139.8188 281.1221)" fill="#FFFFFF" font-family="'Georgia'" font-size="26.4189">nd </text>
	<text transform="matrix(1 0 0 1 176.9639 281.1221)" fill="#FFFFFF" font-family="'Georgia'" font-size="26.4189">m</text>
	<text transform="matrix(1 0 0 1 199.9482 281.1221)" fill="#FFFFFF" font-family="'Georgia'" font-size="26.4189">ade ~ </text>
	<text transform="matrix(1 0 0 1 270.9102 281.1221)" fill="#FFFFFF" font-family="'Georgia'" font-size="26.4189">l</text>
	<text transform="matrix(1 0 0 1 278.6504 281.1221)" fill="#FFFFFF" font-family="'Georgia'" font-size="26.4189">i</text>
	<text transform="matrix(1 0 0 1 286.3906 281.1221)" fill="#FFFFFF" font-family="'Georgia'" font-size="26.4189">k</text>
	<text transform="matrix(1 0 0 1 299.9434 281.1221)" fill="#FFFFFF" font-family="'Georgia'" font-size="26.4189">e you</text>
</g>
</svg>
